<?xml version="1.0" standalone="no"?><!DOCTYPE svg PUBLIC "-//W3C//DTD SVG 1.1//EN" "http://www.w3.org/Graphics/SVG/1.1/DTD/svg11.dtd"><svg t="1603171922657" class="icon" viewBox="0 0 1024 1024" version="1.1" xmlns="http://www.w3.org/2000/svg" p-id="3879" xmlns:xlink="http://www.w3.org/1999/xlink" width="200" height="200"><defs><style type="text/css">@font-face { font-family: element-icons; src: url("chrome-extension://moombeodfomdpjnpocobemoiaemednkg/fonts/element-icons.woff") format("woff"), url("chrome-extension://moombeodfomdpjnpocobemoiaemednkg/fonts/element-icons.ttf ") format("truetype"); }
</style></defs><path d="M524.552258 848.929032c227.922581 0 333.625806-106.363871 333.625807-333.625806s-106.363871-333.625806-333.625807-333.625807c-227.922581 0-333.625806 106.363871-333.625806 333.625807s105.703226 333.625806 333.625806 333.625806m0 48.227097c-254.348387 0-381.852903-126.843871-381.852903-381.852903s126.843871-381.852903 381.852903-381.852903c254.348387 0 381.192258 126.843871 381.192258 381.852903s-126.843871 381.852903-381.192258 381.852903z" p-id="3880" fill="#bfcbd7"></path><path d="M517.945806 292.665806l6.606452 23.783226c74.652903 0 134.771613 60.779355 135.432258 135.432258 0.660645 33.032258-29.729032 101.07871-65.403871 155.251613-17.837419 27.086452-36.335484 52.190968-50.869677 69.367742-7.267097 8.588387-14.534194 15.194839-19.15871 19.15871l0.660645 2.64258 0.660645-2.64258c-36.996129-27.747097-138.735484-183.659355-135.432258-243.778065 0-74.652903 60.779355-134.771613 135.432258-135.432258l6.606452-23.783226-6.606452-23.783225c-101.07871 0-182.99871 81.92-182.998709 182.998709 10.570323 107.685161 118.255484 276.810323 182.998709 293.987097 64.743226-17.176774 171.767742-186.962581 182.99871-293.987097 0-101.07871-81.92-182.99871-182.99871-182.998709v23.783225h-7.927742z" p-id="3881" fill="#bfcbd7"></path><path d="M517.945806 388.459355l6.606452 23.783226c21.80129 0 39.63871 17.837419 39.63871 39.638709s-17.837419 39.63871-39.63871 39.63871-39.63871-17.837419-39.63871-39.63871 17.837419-39.63871 39.63871-39.638709l6.606452-23.783226-6.606452-23.783226c-48.227097 0-87.205161 38.978065-87.205161 87.205161 0 48.227097 38.978065 87.205161 87.205161 87.205162 48.227097 0 87.205161-38.978065 87.205161-87.205162 0-48.227097-38.978065-87.205161-87.205161-87.205161v23.783226h-6.606452z" p-id="3882" fill="#bfcbd7"></path></svg>