<?xml version="1.0" standalone="no"?><!DOCTYPE svg PUBLIC "-//W3C//DTD SVG 1.1//EN" "http://www.w3.org/Graphics/SVG/1.1/DTD/svg11.dtd"><svg t="1602765935695" class="icon" viewBox="0 0 1024 1024" version="1.1" xmlns="http://www.w3.org/2000/svg" p-id="4282" xmlns:xlink="http://www.w3.org/1999/xlink" width="200" height="200"><defs><style type="text/css">@font-face { font-family: element-icons; src: url("chrome-extension://moombeodfomdpjnpocobemoiaemednkg/fonts/element-icons.woff") format("woff"), url("chrome-extension://moombeodfomdpjnpocobemoiaemednkg/fonts/element-icons.ttf ") format("truetype"); }
</style></defs><path d="M527.22810875 980.33206813l-123.48480844-69.01682532a92.82402375 92.82402375 0 0 1-49.05725625-82.6037625V436.6141475a19.59885469 19.59885469 0 0 0-7.45477875-14.90955844L61.78536875 192.7707275l-3.12619781-3.72738938A91.14068625 91.14068625 0 0 1 40.74365375 87.80262875 91.62163969 91.62163969 0 0 1 126.47361313 32.01202344h769.52558437A94.62759937 94.62759937 0 0 1 982.69106375 87.80262875a92.22283219 92.22283219 0 0 1-16.71313313 101.12047125l-3.72738937 3.72738938-288.57209438 231.45886781a19.95957 19.95957 0 0 0-6.85358718 14.9095575v458.10819937a93.0645 93.0645 0 0 1-93.6656925 94.38712313 96.19069781 96.19069781 0 0 1-45.93105844-11.18216906z" p-id="4283" fill="#ffffff"></path><path d="M741.37265 806.46738125a37.27389563 37.27389563 0 0 1 0-74.54779031h211.61953594a37.39413375 37.39413375 0 0 1 37.27389562 37.27389468 36.91318031 36.91318031 0 0 1-37.27389562 37.27389563z m0-139.71698906a37.27389563 37.27389563 0 0 1 0-74.42755219h211.61953594a37.39413375 37.39413375 0 0 1 37.27389562 37.27389563 36.07151156 36.07151156 0 0 1-37.27389562 37.27389562z m0-140.19794156a37.27389563 37.27389563 0 0 1 0-74.42755313h211.61953594a37.39413375 37.39413375 0 0 1 37.27389562 37.27389563 36.07151156 36.07151156 0 0 1-37.27389562 37.27389562z" p-id="4284" fill="#ffffff"></path></svg>