<?xml version="1.0" encoding="UTF-8"?>
<svg width="40px" height="40px" viewBox="0 0 40 40" version="1.1" xmlns="http://www.w3.org/2000/svg" xmlns:xlink="http://www.w3.org/1999/xlink">
    <!-- Generator: Sketch 56.3 (81716) - https://sketch.com -->
    <title>icon_报警</title>
    <desc>Created with Sketch.</desc>
    <g id="智慧消防云平台v1.1一级应用中心" stroke="none" stroke-width="1" fill="none" fill-rule="evenodd">
        <g id="切片" transform="translate(-45.000000, -360.000000)">
            <g id="icon" transform="translate(45.000000, 360.000000)" fill="#363E59" stroke="#E9517D">
                <circle id="bg" cx="20" cy="20" r="19.5"></circle>
            </g>
            <path d="M73.6914224,377.49369 L72.805386,377.776376 C72.5713764,377.871277 72.293365,377.729934 72.1993612,377.49369 C72.1053573,377.257446 72.245363,376.976779 72.4793727,376.881878 L73.365409,376.599192 C73.5994186,376.504291 73.87743,376.645634 73.9714339,376.881878 C74.0634377,377.164563 73.9234319,377.447249 73.6914224,377.49369 Z M57.5208408,376.786976 C57.7548504,376.881878 57.892856,377.116103 57.8008523,377.398788 C57.7068484,377.586572 57.4748389,377.727915 57.1948274,377.681474 L56.308791,377.398788 C56.0747814,377.303887 55.9367758,377.069662 56.0287795,376.786976 C56.1227834,376.550732 56.3547929,376.411408 56.6348044,376.504291 L57.5208408,376.786976 Z M70.2872827,371.740535 C70.4272884,371.552751 70.7072999,371.504291 70.9393094,371.645634 C71.1253171,371.786976 71.171319,372.069662 71.0333133,372.303887 L70.4732903,373.057042 C70.3332846,373.244826 70.0532731,373.293286 69.8212635,373.151943 C69.6352559,373.010601 69.589254,372.681474 69.7272597,372.49369 L70.2872827,371.740535 L70.2872827,371.740535 Z M59.5709249,373.010601 L59.0109019,372.211005 C58.8708962,372.023221 58.9168981,371.740535 59.1049058,371.552751 C59.3389154,371.411408 59.6169268,371.45785 59.7569326,371.694094 L60.3169555,372.447249 C60.4569613,372.635033 60.4109594,372.96416 60.2229517,373.105502 C59.9909422,373.246845 59.7109307,373.200404 59.5709249,373.010601 L59.5709249,373.010601 Z M64.5790894,371.411408 L64.5790894,370.470469 C64.5790894,370.187784 64.7650971,370 65.0451086,370 C65.3251201,370 65.5111277,370.187784 65.5111277,370.470469 L65.5111277,371.411408 C65.5111277,371.694094 65.3251201,371.881878 65.0451086,371.881878 C64.7670971,371.881878 64.5790894,371.694094 64.5790894,371.411408 L64.5790894,371.411408 Z M71,379 L71,385 L59,385 L59,379 C59,375.700129 61.6994207,373 65,373 C68.2980047,373 71,375.700129 71,379 Z M58,387 L58,386 L72,386 L72,387 C72,387.516911 71.512021,388 71,388 L59,388 C58.487979,388 58,387.516911 58,387 Z" id="形状备份" fill="#E9517D" fill-rule="nonzero"></path>
        </g>
    </g>
</svg>